<?xml version="1.0" encoding="UTF-8" standalone="no"?>
<!-- Generator: Adobe Illustrator 16.0.0, SVG Export Plug-In . SVG Version: 6.00 Build 0)  -->

<svg
   xmlns:dc="http://purl.org/dc/elements/1.1/"
   xmlns:cc="http://creativecommons.org/ns#"
   xmlns:rdf="http://www.w3.org/1999/02/22-rdf-syntax-ns#"
   xmlns:svg="http://www.w3.org/2000/svg"
   xmlns="http://www.w3.org/2000/svg"
   xmlns:sodipodi="http://sodipodi.sourceforge.net/DTD/sodipodi-0.dtd"
   xmlns:inkscape="http://www.inkscape.org/namespaces/inkscape"
   version="1.1"
   id="Capa_1"
   x="0px"
   y="0px"
   width="427.632px"
   height="427.632px"
   viewBox="0 0 427.632 427.632"
   style="enable-background:new 0 0 427.632 427.632;"
   xml:space="preserve"
   inkscape:version="0.92.4 (33fec40, 2019-01-16)"
   sodipodi:docname="adoption-icon.svg"><metadata
     id="metadata50"><rdf:RDF><cc:Work
         rdf:about=""><dc:format>image/svg+xml</dc:format><dc:type
           rdf:resource="http://purl.org/dc/dcmitype/StillImage" /></cc:Work></rdf:RDF></metadata><defs
     id="defs48" /><sodipodi:namedview
     pagecolor="#ffffff"
     bordercolor="#666666"
     borderopacity="1"
     objecttolerance="10"
     gridtolerance="10"
     guidetolerance="10"
     inkscape:pageopacity="0"
     inkscape:pageshadow="2"
     inkscape:window-width="1920"
     inkscape:window-height="973"
     id="namedview46"
     showgrid="false"
     inkscape:zoom="1.3419398"
     inkscape:cx="-249.79794"
     inkscape:cy="186.67177"
     inkscape:window-x="0"
     inkscape:window-y="30"
     inkscape:window-maximized="1"
     inkscape:current-layer="g3" /><g
     id="g3"
     style="fill:#fe4a49;fill-opacity:1"><g
       id="icons_12_"
       style="fill:#4c8be1;fill-opacity:1"><g
         id="g6"
         style="fill:#4c8be1;fill-opacity:1"><path
           d="M414.283,82.392l-57.985-25.241V23.61c0-11.046-8.954-20-20-20h-16.91c-11.046,0-20,8.954-20,20v8.77L227.865,1.247     c-3.676-1.601-7.842-1.662-11.563-0.171L13.757,82.221c-7.689,3.081-11.426,11.813-8.346,19.503     c2.349,5.861,7.979,9.425,13.93,9.425c1.855,0,3.744-0.347,5.573-1.08l196.725-78.814l180.671,78.644     c7.597,3.308,16.434-0.171,19.74-7.767C425.356,94.536,421.878,85.698,414.283,82.392z"
           id="path8"
           style="fill:#4c8be1;fill-opacity:1" /><circle
           cx="320.569"
           cy="238.217"
           r="22.759"
           id="circle10"
           style="fill:#4c8be1;fill-opacity:1" /><path
           d="M344.975,273.361c-9.818-7.199-27.148-10.18-38.521-4.669c-6.315,3.061-23.563,11.082-33.242,1.326     c-3.62-3.649-5.758-4.594-8.799-4.105c0.088-0.68,0.147-1.366,0.147-2.069c0-14.398,0-38.497-8.695-59.849     c-11.585-28.448-34.896-43.484-67.414-43.484c-41.104,0-59.326,22.472-67.375,41.324c-8.863,20.759-8.863,44.579-8.863,60.343     c0,8.836,7.164,16,16,16c8.836,0,16-7.164,16-16c0-19.166,0.947-33.679,5.246-45.106c0.805-2.208,3.848-1.886,3.848,2.231     s-0.42,10.952-0.42,27.27c0,16.318-13.794,85.95-18.06,110.146c-0.956,5.415-0.389,9.427,4.389,11.395     c4.776,1.967,9.742,3.454,14.791,4.553v38.629c0,9.023,6.987,16.338,15.62,16.338c0,0,0,0,0.008,0     c8.625,0,15.622-7.314,15.622-16.338v-36.128c0.127-0.005,0.251-0.011,3.007-0.017c2.756,0.006,2.88,0.012,3.007,0.017v36.125     c0,9.023,6.997,16.338,15.621,16.338c0.009,0,0.009,0,0.009,0c8.633,0,15.62-7.314,15.62-16.338v-38.629     c5.049-1.099,10.015-2.586,14.791-4.553c4.777-1.968,5.345-5.979,4.39-11.395c-4.267-24.195-18.061-94.531-18.061-110.85     c0-16.317-0.095-23.699-0.456-26.63c-0.421-3.417,2.329-5.062,3.504-2.125c6.395,15.989,5.87,27.171,5.87,46.731     c0,8.836,7.163,16,16,16c2.81,0,5.446-0.729,7.74-2c6.882,13.895,21.229,17.075,28.971,17.075c2.775,0,5.427-0.429,7.956-1.146     c0.849-0.241,2.521-0.857,2.712,0.818c0.191,1.675,0.959,122.458,0.959,122.458c0,5.769,4.676,10.439,10.443,10.439     c5.771,0,10.442-4.671,10.442-10.439c0,0,0-54.415,0-58.009c0-2.427,3.49-2.197,3.49,0c0,2.198-0.008,58.009-0.008,58.009     c0,5.769,4.668,10.439,10.439,10.439c5.764,0,10.436-4.671,10.436-10.439c0,0-0.583-116.035-0.279-118.02     c0.239-1.563,1.29-0.886,1.693-0.022c2.187,4.678,3.989,11.277,3.989,20.386c0,4.47,3.62,8.096,8.095,8.096     c4.467,0,8.088-3.625,8.088-8.096C363.714,286.76,350.847,277.668,344.975,273.361z"
           id="path12"
           style="fill:#4c8be1;fill-opacity:1" /><path
           d="M188.267,149.618c0.009,0,0.017,0,0.026,0c19.671,0,35.616-15.943,35.616-35.612s-15.945-35.613-35.616-35.613     c-0.009,0-0.017,0.001-0.026,0.001s-0.017-0.001-0.026-0.001c-19.672,0-35.617,15.944-35.617,35.613     c0,19.668,15.945,35.612,35.617,35.612C188.25,149.618,188.259,149.618,188.267,149.618z"
           id="path14"
           style="fill:#4c8be1;fill-opacity:1" /></g></g></g><g
     id="g16" /><g
     id="g18" /><g
     id="g20" /><g
     id="g22" /><g
     id="g24" /><g
     id="g26" /><g
     id="g28" /><g
     id="g30" /><g
     id="g32" /><g
     id="g34" /><g
     id="g36" /><g
     id="g38" /><g
     id="g40" /><g
     id="g42" /><g
     id="g44" /></svg>