<?xml version="1.0" encoding="UTF-8" standalone="no"?>
<!-- Generator: Adobe Illustrator 19.1.0, SVG Export Plug-In . SVG Version: 6.00 Build 0)  -->

<svg
   xmlns:dc="http://purl.org/dc/elements/1.1/"
   xmlns:cc="http://creativecommons.org/ns#"
   xmlns:rdf="http://www.w3.org/1999/02/22-rdf-syntax-ns#"
   xmlns:svg="http://www.w3.org/2000/svg"
   xmlns="http://www.w3.org/2000/svg"
   xmlns:sodipodi="http://sodipodi.sourceforge.net/DTD/sodipodi-0.dtd"
   xmlns:inkscape="http://www.inkscape.org/namespaces/inkscape"
   version="1.1"
   id="Capa_1"
   x="0px"
   y="0px"
   viewBox="0 0 477.5 477.5"
   style="enable-background:new 0 0 477.5 477.5;"
   xml:space="preserve"
   sodipodi:docname="chat-heart.svg"
   inkscape:version="0.92.4 (33fec40, 2019-01-16)"><metadata
   id="metadata45"><rdf:RDF><cc:Work
       rdf:about=""><dc:format>image/svg+xml</dc:format><dc:type
         rdf:resource="http://purl.org/dc/dcmitype/StillImage" /><dc:title></dc:title></cc:Work></rdf:RDF></metadata><defs
   id="defs43">
	
</defs><sodipodi:namedview
   pagecolor="#ffffff"
   bordercolor="#666666"
   borderopacity="1"
   objecttolerance="10"
   gridtolerance="10"
   guidetolerance="10"
   inkscape:pageopacity="0"
   inkscape:pageshadow="2"
   inkscape:window-width="1920"
   inkscape:window-height="973"
   id="namedview41"
   showgrid="false"
   inkscape:zoom="0.49424084"
   inkscape:cx="-20.233051"
   inkscape:cy="238.75"
   inkscape:window-x="0"
   inkscape:window-y="30"
   inkscape:window-maximized="1"
   inkscape:current-layer="Capa_1" />
<g
   id="g6"
   style="fill:#4c8be1;fill-opacity:1">
		<path
   inkscape:connector-curvature="0"
   id="path2"
   d="m 407.533,70 c -45.1,-45.1 -105,-70 -168.8,-70 -63.8,0 -123.7,24.8 -168.8,69.9 -87,87 -93.3,226 -15.8,320.2 -10.7,21.9 -23.4,36.5 -37.6,43.5 -8.7,4.3 -13.6,13.7 -12.2,23.3 1.5,9.7 8.9,17.2 18.6,18.7 5.3,0.8 11,1.3 16.9,1.3 v 0 c 29.3,0 60.1,-10.1 85.8,-27.8 34.6,18.6 73.5,28.4 113.1,28.4 63.8,0 123.7,-24.8 168.8,-69.9 45.1,-45.1 69.9,-105.1 69.9,-168.8 0,-63.7 -24.8,-123.7 -69.9,-168.8 z m -19.1,318.5 c -40,40 -93.2,62 -149.7,62 -37.8,0 -74.9,-10.1 -107.2,-29.1 -2.1,-1.2 -4.5,-1.9 -6.8,-1.9 -2.9,0 -5.9,1 -8.3,2.8 -30.6,23.7 -61.4,27.2 -74.9,27.5 16.1,-12 29.6,-30.6 40.9,-56.5 2.1,-4.8 1.2,-10.4 -2.3,-14.4 -74,-83.6 -70.1,-211 8.9,-290 40,-40 93.2,-62 149.7,-62 56.6,0 109.7,22 149.7,62 82.6,82.7 82.6,217.1 0,299.6 z"
   style="fill:#4c8be1;fill-opacity:1" />
		<path
   inkscape:connector-curvature="0"
   id="path4"
   d="m 299.333,129.4 c -21.6,0 -41.9,8.4 -57.2,23.7 l -3.4,3.4 -3.4,-3.4 c -15.3,-15.3 -35.6,-23.7 -57.2,-23.7 -21.5,0 -41.8,8.4 -57,23.6 -15.3,15.3 -23.7,35.6 -23.6,57.1 0,21.6 8.5,41.8 23.7,57.1 l 107.9,107.9 c 2.6,2.6 6.1,4 9.5,4 3.4,0 6.9,-1.3 9.5,-3.9 l 108.2,-107.8 c 15.3,-15.3 23.7,-35.6 23.7,-57.1 0,-21.6 -8.4,-41.9 -23.6,-57.2 -15.3,-15.3 -35.6,-23.7 -57.1,-23.7 z m 37.9,118.9 -98.6,98.2 -98.4,-98.4 c -10.2,-10.2 -15.8,-23.7 -15.8,-38.1 0,-14.4 5.6,-27.9 15.7,-38 10.1,-10.1 23.6,-15.7 38,-15.7 14.4,0 27.9,5.6 38.1,15.8 l 13,13 c 5.3,5.3 13.8,5.3 19.1,0 l 12.9,-12.9 c 10.2,-10.2 23.7,-15.8 38.1,-15.8 14.3,0 27.8,5.6 38,15.8 10.2,10.2 15.8,23.7 15.7,38 0,14.4 -5.6,27.9 -15.8,38.1 z"
   style="fill:#4c8be1;fill-opacity:1" />
	</g>
<g
   id="g10">
</g>
<g
   id="g12">
</g>
<g
   id="g14">
</g>
<g
   id="g16">
</g>
<g
   id="g18">
</g>
<g
   id="g20">
</g>
<g
   id="g22">
</g>
<g
   id="g24">
</g>
<g
   id="g26">
</g>
<g
   id="g28">
</g>
<g
   id="g30">
</g>
<g
   id="g32">
</g>
<g
   id="g34">
</g>
<g
   id="g36">
</g>
<g
   id="g38">
</g>
</svg>