<?xml version="1.0" encoding="UTF-8" standalone="no"?>
<!-- Generator: Adobe Illustrator 19.1.0, SVG Export Plug-In . SVG Version: 6.00 Build 0)  -->

<svg
   xmlns:dc="http://purl.org/dc/elements/1.1/"
   xmlns:cc="http://creativecommons.org/ns#"
   xmlns:rdf="http://www.w3.org/1999/02/22-rdf-syntax-ns#"
   xmlns:svg="http://www.w3.org/2000/svg"
   xmlns="http://www.w3.org/2000/svg"
   xmlns:sodipodi="http://sodipodi.sourceforge.net/DTD/sodipodi-0.dtd"
   xmlns:inkscape="http://www.inkscape.org/namespaces/inkscape"
   version="1.1"
   id="Capa_1"
   x="0px"
   y="0px"
   viewBox="0 0 477.5 477.5"
   style="enable-background:new 0 0 477.5 477.5;"
   xml:space="preserve"
   sodipodi:docname="chat-heart[filled].svg"
   inkscape:version="0.92.4 (33fec40, 2019-01-16)"><metadata
   id="metadata45"><rdf:RDF><cc:Work
       rdf:about=""><dc:format>image/svg+xml</dc:format><dc:type
         rdf:resource="http://purl.org/dc/dcmitype/StillImage" /><dc:title></dc:title></cc:Work></rdf:RDF></metadata><defs
   id="defs43">
	

		
		
	</defs><sodipodi:namedview
   pagecolor="#ffffff"
   bordercolor="#666666"
   borderopacity="1"
   objecttolerance="10"
   gridtolerance="10"
   guidetolerance="10"
   inkscape:pageopacity="0"
   inkscape:pageshadow="2"
   inkscape:window-width="1920"
   inkscape:window-height="973"
   id="namedview41"
   showgrid="false"
   inkscape:zoom="0.49424084"
   inkscape:cx="-20.233051"
   inkscape:cy="238.75"
   inkscape:window-x="0"
   inkscape:window-y="30"
   inkscape:window-maximized="1"
   inkscape:current-layer="Capa_1" />
<path
   style="fill:#4c8be1;fill-opacity:1"
   d="m 407.533,70 c -45.1,-45.1 -105,-70 -168.8,-70 -63.8,0 -123.7,24.8 -168.8,69.9 -87,87 -93.3,226 -15.8,320.2 -10.7,21.9 -23.4,36.5 -37.6,43.5 -8.7,4.3 -13.6,13.7 -12.2,23.3 1.5,9.7 8.9,17.2 18.6,18.7 5.3,0.8 11,1.3 16.9,1.3 v 0 c 29.3,0 60.1,-10.1 85.8,-27.8 34.6,18.6 73.5,28.4 113.1,28.4 63.8,0 123.7,-24.8 168.8,-69.9 45.1,-45.1 69.9,-105.1 69.9,-168.8 0,-63.7 -24.8,-123.7 -69.9,-168.8 z m -19.1,318.5 c -40,40 -93.2,62 -149.7,62 -37.8,0 -74.9,-10.1 -107.2,-29.1 -2.1,-1.2 -4.5,-1.9 -6.8,-1.9 -2.9,0 -5.9,1 -8.3,2.8 -30.6,23.7 -61.4,27.2 -74.9,27.5 16.1,-12 29.6,-30.6 40.9,-56.5 2.1,-4.8 1.2,-10.4 -2.3,-14.4 -74,-83.6 -70.1,-211 8.9,-290 40,-40 93.2,-62 149.7,-62 56.6,0 109.7,22 149.7,62 82.6,82.7 82.6,217.1 0,299.6 z"
   id="path2"
   inkscape:connector-curvature="0" /><path
   style="fill:#4c8be1;fill-opacity:1;stroke-width:1.22688246"
   d="m 310.72188,105.12034 c -26.50066,0 -51.40637,10.30581 -70.17767,29.07711 l -4.1714,4.1714 -4.1714,-4.1714 c -18.7713,-18.7713 -43.67702,-29.07711 -70.17768,-29.07711 -26.37797,0 -51.28368,10.30581 -69.932286,28.95443 -18.77131,18.7713 -29.077118,43.67701 -28.95443,70.05498 0,26.50066 10.4285,51.28369 29.07711,70.05499 L 224.59474,406.56535 c 3.18989,3.1899 7.48398,4.90753 11.65538,4.90753 4.1714,0 8.46549,-1.59494 11.65538,-4.78484 L 380.65418,274.43012 c 18.7713,-18.77131 29.07712,-43.67702 29.07712,-70.05499 0,-26.50066 -10.30582,-51.40638 -28.95443,-70.17768 -18.7713,-18.7713 -43.67701,-29.07711 -70.05499,-29.07711 z M 357.22073,250.99666 236.25012,371.47652 115.52489,250.75128 c -12.5142,-12.5142 -19.384736,-29.07711 -19.384736,-46.74422 0,-17.6671 6.870536,-34.23002 19.262046,-46.62153 12.39151,-12.39151 28.95443,-19.26205 46.62153,-19.26205 17.66711,0 34.23002,6.87054 46.74422,19.38474 l 15.94948,15.94947 c 6.50247,6.50248 16.93097,6.50248 23.43345,0 l 15.82678,-15.82678 c 12.5142,-12.5142 29.07712,-19.38474 46.74422,-19.38474 17.54442,0 34.10734,6.87054 46.62154,19.38474 12.5142,12.5142 19.38474,29.07711 19.26205,46.62153 0,17.66711 -6.87054,34.23002 -19.38474,46.74422 z"
   id="path4"
   inkscape:connector-curvature="0" />
<g
   id="g10">
</g>
<g
   id="g12">
</g>
<g
   id="g14">
</g>
<g
   id="g16">
</g>
<g
   id="g18">
</g>
<g
   id="g20">
</g>
<g
   id="g22">
</g>
<g
   id="g24">
</g>
<g
   id="g26">
</g>
<g
   id="g28">
</g>
<g
   id="g30">
</g>
<g
   id="g32">
</g>
<g
   id="g34">
</g>
<g
   id="g36">
</g>
<g
   id="g38">
</g>
<path
   style="opacity:1;vector-effect:none;fill:#ffffff;fill-opacity:0.94117647;stroke:#4c8be1;stroke-width:32.83621979;stroke-linecap:butt;stroke-linejoin:miter;stroke-miterlimit:4;stroke-dasharray:none;stroke-dashoffset:0;stroke-opacity:1;paint-order:stroke fill markers"
   d=""
   id="path926"
   inkscape:connector-curvature="0" /><path
   style="opacity:1;vector-effect:none;fill:#4c8be1;fill-opacity:1;stroke:#4c8be1;stroke-width:32.83621979;stroke-linecap:butt;stroke-linejoin:miter;stroke-miterlimit:4;stroke-dasharray:none;stroke-dashoffset:0;stroke-opacity:1;paint-order:stroke fill markers"
   d="m 52.58128,440.62909 c 4.699553,-4.69955 11.207577,-12.41508 14.462275,-17.14563 6.426669,-9.34085 17.931089,-32.60613 17.933662,-36.2671 8.78e-4,-1.24842 -5.688949,-9.90434 -12.64406,-19.23536 -29.80753,-39.99003 -44.006886,-81.68796 -44.006886,-129.231 0,-46.79385 14.375694,-89.83379 42.449119,-127.09003 71.32714,-94.65826 207.17222,-111.52987755 299.65875,-37.216866 48.41741,38.903426 75.54263,92.794956 78.11783,155.202026 1.30361,31.59178 -2.23867,55.40096 -12.18022,81.86834 -44.94764,119.66411 -180.06367,171.90702 -295.19571,114.13806 -7.48374,-3.75505 -15.23503,-6.82738 -17.2251,-6.82738 -1.99007,0 -8.4983,3.28638 -14.46273,7.30306 -14.479918,9.75136 -30.776869,16.78429 -46.765752,20.18172 -19.028836,4.04339 -19.56444,3.74342 -10.141178,-5.67984 z m 191.83329,-30.75628 c 3.00499,-1.5848 37.49216,-35.0452 76.63818,-74.35646 66.00986,-66.28852 71.68712,-72.54702 78.23793,-86.24816 14.35215,-30.01772 14.62014,-59.15122 0.80821,-87.86294 -8.82066,-18.33607 -19.10741,-30.29991 -34.73991,-40.40368 -18.6523,-12.05556 -35.68497,-16.44691 -59.44531,-15.32614 -24.08269,1.13597 -37.93956,6.07272 -56.52011,20.13629 l -13.30026,10.06693 -5.24738,-4.23079 c -26.1224,-21.06156 -43.13749,-27.12833 -73.22411,-26.10824 -20.46745,0.69395 -22.22473,1.11546 -38.7136,9.28602 -35.239323,17.46177 -56.185752,50.83848 -56.185752,89.52817 0,16.02776 4.281819,33.48829 11.622888,47.39621 3.841109,7.2771 26.659164,31.68821 78.336484,83.8056 40.10418,40.44569 74.73766,74.30363 76.9633,75.23988 5.88595,2.47598 8.65282,2.30312 14.76944,-0.92269 z"
   id="path983"
   inkscape:connector-curvature="0" /></svg>