<?xml version="1.0" encoding="UTF-8" standalone="no"?>
<!-- Created with Inkscape (http://www.inkscape.org/) -->

<svg
   xmlns:dc="http://purl.org/dc/elements/1.1/"
   xmlns:cc="http://creativecommons.org/ns#"
   xmlns:rdf="http://www.w3.org/1999/02/22-rdf-syntax-ns#"
   xmlns:svg="http://www.w3.org/2000/svg"
   xmlns="http://www.w3.org/2000/svg"
   xmlns:sodipodi="http://sodipodi.sourceforge.net/DTD/sodipodi-0.dtd"
   xmlns:inkscape="http://www.inkscape.org/namespaces/inkscape"
   width="32.18729mm"
   height="33.370224mm"
   viewBox="0 0 114.04945 118.24095"
   id="svg4874"
   version="1.1"
   inkscape:version="0.92.4 (33fec40, 2019-01-16)"
   sodipodi:docname="hands-home-icon.svg">
  <defs
     id="defs4876" />
  <sodipodi:namedview
     id="base"
     pagecolor="#ffffff"
     bordercolor="#666666"
     borderopacity="1.0"
     inkscape:pageopacity="0.0"
     inkscape:pageshadow="2"
     inkscape:zoom="3.4220859"
     inkscape:cx="25.024138"
     inkscape:cy="17.872052"
     inkscape:document-units="px"
     inkscape:current-layer="layer1"
     showgrid="false"
     inkscape:window-width="1920"
     inkscape:window-height="973"
     inkscape:window-x="0"
     inkscape:window-y="30"
     inkscape:window-maximized="1"
     fit-margin-top="0"
     fit-margin-left="0"
     fit-margin-right="0"
     fit-margin-bottom="0" />
  <metadata
     id="metadata4879">
    <rdf:RDF>
      <cc:Work
         rdf:about="">
        <dc:format>image/svg+xml</dc:format>
        <dc:type
           rdf:resource="http://purl.org/dc/dcmitype/StillImage" />
        <dc:title />
      </cc:Work>
    </rdf:RDF>
  </metadata>
  <g
     inkscape:label="Layer 1"
     inkscape:groupmode="layer"
     id="layer1"
     transform="translate(-277.37843,-425.55741)">
    <path
       style="fill:#4c8be1;fill-opacity:1"
       d="m 320.96857,543.52953 -9.14455,-0.14992 0,-5.03724 c 0,-7.47353 -0.27069,-7.82079 -12.79845,-16.41892 -8.97515,-6.15987 -11.01098,-7.93229 -12.56586,-10.94004 -1.51903,-2.93841 -5.75644,-13.25655 -7.68796,-18.72028 l -1.39332,-3.94129 0.27612,-8.71017 c 0.2974,-9.38138 0.87064,-14.9415 1.6292,-15.80215 0.69264,-0.78587 2.82582,1.17761 3.28948,3.02779 0.20708,0.82632 0.67017,4.38442 1.02909,7.90692 0.35892,3.52249 0.74332,7.1317 0.85422,8.02047 0.15586,1.249 0.0151,1.67129 -0.6201,1.85975 -0.45195,0.13409 -1.17608,0.85739 -1.60916,1.60731 -0.99463,1.72231 -0.7894,2.25408 3.16453,8.19933 1.67241,2.5147 3.25174,5.09759 3.50963,5.73977 0.49439,1.23114 5.76243,5.71868 5.76243,4.90869 0,-0.25955 -0.96526,-1.60238 -2.14502,-2.98406 -2.85431,-3.34287 -9.28752,-13.89281 -8.99644,-14.75345 0.46541,-1.37608 2.53688,-1.41368 5.08085,-0.0922 2.76698,1.43725 6.24568,4.97184 9.95217,10.11204 3.26424,4.52688 4.52492,5.35645 9.20434,6.05676 8.26954,1.23758 11.71703,3.07934 16.45066,8.78847 5.591,6.7432 7.97942,13.94564 7.04828,21.25453 -0.24768,1.94409 -0.45435,5.09101 -0.45927,6.99316 -0.005,1.90214 -0.16135,3.40585 -0.34763,3.34158 -0.18628,-0.0644 -4.45374,-0.18434 -9.48324,-0.26679 z m 17.03831,-3.33097 c -0.005,-1.76125 -0.21159,-4.79288 -0.45927,-6.73697 -0.93114,-7.30889 1.45728,-14.51133 7.04828,-21.25453 4.73363,-5.70913 8.18112,-7.55089 16.45066,-8.78848 4.67942,-0.7003 5.9401,-1.52987 9.20434,-6.05675 3.70649,-5.1402 7.18519,-8.67479 9.95216,-10.11204 2.54398,-1.32143 4.61545,-1.28383 5.08086,0.0922 0.29107,0.86063 -6.14213,11.41058 -8.99644,14.75344 -1.17976,1.38169 -2.14502,2.72451 -2.14502,2.98407 0,0.80998 5.26804,-3.67756 5.76243,-4.90869 0.25789,-0.64218 1.83722,-3.22507 3.50963,-5.73978 3.95393,-5.94524 4.15916,-6.47702 3.16453,-8.19932 -0.43308,-0.74992 -1.15721,-1.47322 -1.60916,-1.60731 -0.63515,-0.18846 -0.77595,-0.61075 -0.6201,-1.85977 0.1109,-0.88875 0.4953,-4.49796 0.85422,-8.02046 0.35892,-3.52249 0.82201,-7.0806 1.02909,-7.90692 0.46366,-1.85017 2.59684,-3.81366 3.28948,-3.02779 0.75856,0.86066 1.33181,6.42078 1.6292,15.80215 l 0.27612,8.71017 -1.39332,3.9413 c -1.93152,5.46372 -6.16893,15.78187 -7.68796,18.72027 -1.55488,3.00775 -3.59071,4.78018 -12.56586,10.94005 -12.53087,8.60026 -12.79845,8.94375 -12.79845,16.42953 l 0,5.04784 -9.48324,0 -9.48324,0 -0.009,-3.20226 z m -28.79846,-58.79397 c 0.0725,-8.45419 0.0194,-15.37108 -0.11821,-15.37089 -0.13755,2.1e-4 -0.9504,0.82701 -1.80633,1.83735 -2.1319,2.5165 -3.82878,3.44562 -5.60311,3.06796 -2.13096,-0.45358 -3.6095,-2.47473 -3.6095,-4.93417 0,-2.37123 -0.24321,-2.07509 21.05024,-25.63067 13.22175,-14.62637 13.4181,-14.81676 15.28111,-14.81676 1.86117,0 2.06615,0.19773 14.83007,14.30488 21.3718,23.62092 21.50236,23.77964 21.50236,26.14135 0,2.46069 -1.47806,4.48169 -3.6095,4.93537 -1.77433,0.37766 -3.47121,-0.55146 -5.60311,-3.06796 -0.85593,-1.01034 -1.66878,-1.83714 -1.80633,-1.83735 -0.13756,-1.9e-4 -0.19075,6.9167 -0.11821,15.37089 l 0.13189,15.37124 -25.32663,0 -25.32664,0 0.1319,-15.37124 z m 17.51783,0.7689 0,-8.96635 7.67691,0 7.67691,0 0,8.96635 0,8.96634 5.87057,0 5.87058,0 0,-16.09835 0,-16.09837 -9.50729,-10.4164 c -5.22901,-5.72904 -9.68885,-10.41641 -9.91077,-10.41641 -0.22192,0 -4.68176,4.68737 -9.91077,10.41641 l -9.50729,10.4164 0,16.09837 0,16.09835 5.87058,0 5.87057,0 0,-8.96634 z"
       id="path5433"
       inkscape:connector-curvature="0" />
  </g>
</svg>
