<?xml version="1.0" encoding="UTF-8" standalone="no"?>
<!-- Generator: Adobe Illustrator 19.0.0, SVG Export Plug-In . SVG Version: 6.00 Build 0)  -->

<svg
   xmlns:dc="http://purl.org/dc/elements/1.1/"
   xmlns:cc="http://creativecommons.org/ns#"
   xmlns:rdf="http://www.w3.org/1999/02/22-rdf-syntax-ns#"
   xmlns:svg="http://www.w3.org/2000/svg"
   xmlns="http://www.w3.org/2000/svg"
   xmlns:sodipodi="http://sodipodi.sourceforge.net/DTD/sodipodi-0.dtd"
   xmlns:inkscape="http://www.inkscape.org/namespaces/inkscape"
   version="1.1"
   id="Capa_1"
   x="0px"
   y="0px"
   viewBox="0 0 212.115 212.115"
   style="enable-background:new 0 0 212.115 212.115;"
   xml:space="preserve"
   inkscape:version="0.92.4 (33fec40, 2019-01-16)"
   sodipodi:docname="house-love.svg"><metadata
     id="metadata43"><rdf:RDF><cc:Work
         rdf:about=""><dc:format>image/svg+xml</dc:format><dc:type
           rdf:resource="http://purl.org/dc/dcmitype/StillImage" /></cc:Work></rdf:RDF></metadata><defs
     id="defs41" /><sodipodi:namedview
     pagecolor="#ffffff"
     bordercolor="#666666"
     borderopacity="1"
     objecttolerance="10"
     gridtolerance="10"
     guidetolerance="10"
     inkscape:pageopacity="0"
     inkscape:pageshadow="2"
     inkscape:window-width="1920"
     inkscape:window-height="973"
     id="namedview39"
     showgrid="false"
     inkscape:zoom="1.9130082"
     inkscape:cx="79.841131"
     inkscape:cy="118.02083"
     inkscape:window-x="0"
     inkscape:window-y="30"
     inkscape:window-maximized="1"
     inkscape:current-layer="Capa_1" /><path
     inkscape:connector-curvature="0"
     id="path7"
     d="m 163.079,42.076 c 0,0 17.421,-11.313 20.747,-16.964 1.658,-2.816 2.828,-5.899 2.633,-9.966 C 186.115,7.946 180.845,2 174.39,2 168.039,2 163.057,7.285 163.057,7.285 163.057,7.285 158.36,2 151.724,2 145.27,2 140,7.946 139.655,15.146 c -0.194,4.067 0.979,7.162 2.633,9.966 3.305,5.602 20.791,16.964 20.791,16.964 z"
     style="fill:#4c8be1;fill-opacity:1;stroke:#4c8be1;stroke-opacity:1" /><g
     id="g9" /><g
     id="g11" /><g
     id="g13" /><g
     id="g15" /><g
     id="g17" /><g
     id="g19" /><g
     id="g21" /><g
     id="g23" /><g
     id="g25" /><g
     id="g27" /><g
     id="g29" /><g
     id="g31" /><g
     id="g33" /><g
     id="g35" /><g
     id="g37" /><path
     style="opacity:1;fill:#4c8be1;fill-opacity:1;stroke:none;stroke-width:0.04887785;stroke-miterlimit:4;stroke-dasharray:none;stroke-dashoffset:0;stroke-opacity:1"
     d="m 33.867847,169.01123 0,-43.00592 L 17.856004,125.87653 1.8441614,125.74774 53.611844,77.84745 C 82.084072,51.502289 105.53533,29.883971 105.72576,29.806744 c 0.19042,-0.07723 9.88947,8.712471 21.55344,19.532663 l 21.20721,19.673075 0.13492,-7.435395 0.13493,-7.435394 13.91745,0 13.91746,0 0,20.418051 0,20.418056 16.86027,15.38497 16.86027,15.38497 -16.86027,0.12853 -16.86027,0.12853 0,43.00618 0,43.00617 -71.36166,0 -71.361663,0 0,-43.00592 z m 77.881353,9.91518 c 22.31665,-15.39774 34.33212,-25.89349 37.87562,-33.08511 3.01075,-6.11038 3.61215,-8.40401 3.85888,-14.71699 0.17032,-4.35766 0.0261,-6.7322 -0.56103,-9.2377 -2.19996,-9.38805 -8.35845,-16.67562 -16.78499,-19.86228 -3.5927,-1.35866 -9.84238,-1.47629 -14.04531,-0.26435 -3.8349,1.10581 -9.4347,4.13113 -13.21605,7.14005 l -3.02567,2.40759 -0.92154,-1.03131 c -1.73264,-1.93901 -7.574063,-5.72169 -11.092447,-7.18303 -10.278029,-4.26893 -20.165911,-2.36272 -27.372833,5.27699 -9.420741,9.98649 -10.784985,25.36779 -3.421904,38.58054 3.213196,5.76595 13.452397,14.95537 28.990827,26.01853 6.658238,4.74058 13.790037,9.64568 14.095497,9.69459 0.0911,0.0146 2.62049,-1.6673 5.62095,-3.73752 z"
     id="path4173"
     inkscape:connector-curvature="0" /></svg>